<svg xmlns="http://www.w3.org/2000/svg" width="960" height="560" viewBox="0 0 960 560">
<style>
.bg{fill:#fbfcfd}.title{font:700 26px Arial, sans-serif;fill:#111827}.subtitle{font:14px Arial, sans-serif;fill:#64748b}.axis{font:12px Arial, sans-serif;fill:#64748b}.label{font:600 14px Arial, sans-serif;fill:#1f2937}.value{font:700 13px Arial, sans-serif;fill:#111827}.grid{stroke:#e5e7eb;stroke-width:1}.bar{rx:5;ry:5}
</style>
<rect class="bg" width="100%" height="100%" rx="12"/>
<text class="title" x="32" y="42">Country distribution by annual sales</text>
<text class="subtitle" x="32" y="66">Aggregated annual_sales_units by country of origin</text>
<line class="grid" x1="384.5" y1="92" x2="384.5" y2="490"/>
<text class="axis" x="384.5" y="525" text-anchor="middle">27.7M</text>
<line class="grid" x1="549.0" y1="92" x2="549.0" y2="490"/>
<text class="axis" x="549.0" y="525" text-anchor="middle">55.4M</text>
<line class="grid" x1="713.5" y1="92" x2="713.5" y2="490"/>
<text class="axis" x="713.5" y="525" text-anchor="middle">83.2M</text>
<line class="grid" x1="878.0" y1="92" x2="878.0" y2="490"/>
<text class="axis" x="878.0" y="525" text-anchor="middle">110.9M</text>
<text class="label" x="202" y="130.2" text-anchor="end">US</text>
<rect class="bar" x="220" y="99.0" width="658.0" height="52.3" fill="#0f766e"/>
<text class="value" x="888.0" y="130.2">110.9M</text>
<text class="label" x="202" y="196.5" text-anchor="end">Germany</text>
<rect class="bar" x="220" y="165.3" width="383.6" height="52.3" fill="#2563eb"/>
<text class="value" x="613.6" y="196.5">64.7M</text>
<text class="label" x="202" y="262.8" text-anchor="end">China</text>
<rect class="bar" x="220" y="231.7" width="302.8" height="52.3" fill="#e11d48"/>
<text class="value" x="532.8" y="262.8">51.0M</text>
<text class="label" x="202" y="329.2" text-anchor="end">South Korea</text>
<rect class="bar" x="220" y="298.0" width="188.9" height="52.3" fill="#d97706"/>
<text class="value" x="418.9" y="329.2">31.8M</text>
<text class="label" x="202" y="395.5" text-anchor="end">Japan</text>
<rect class="bar" x="220" y="364.3" width="3.7" height="52.3" fill="#7c3aed"/>
<text class="value" x="233.7" y="395.5">621.0K</text>
<text class="label" x="202" y="461.8" text-anchor="end">Sweden</text>
<rect class="bar" x="220" y="430.7" width="2.0" height="52.3" fill="#059669"/>
<text class="value" x="232.0" y="461.8">270.6K</text>
</svg>