<svg xmlns="http://www.w3.org/2000/svg" width="960" height="560" viewBox="0 0 960 560">
<style>
.bg{fill:#fbfcfd}.title{font:700 26px Arial, sans-serif;fill:#111827}.subtitle{font:14px Arial, sans-serif;fill:#64748b}.center{font:700 30px Arial, sans-serif;fill:#111827}.center2{font:13px Arial, sans-serif;fill:#64748b}.legend{font:600 16px Arial, sans-serif;fill:#1f2937}.legend2{font:13px Arial, sans-serif;fill:#64748b}
</style>
<rect class="bg" width="100%" height="100%" rx="12"/>
<text class="title" x="32" y="42">Market segment sales mix</text>
<text class="subtitle" x="32" y="66">Share of annual_sales_units by segment</text>
<path d="M 435.076 391.257 A 170 170 0 0 0 288.000 136.000 L 288.000 212.000 A 94 94 0 0 1 369.324 353.142 Z" fill="#d97706"/>
<path d="M 147.070 401.072 A 170 170 0 0 0 435.076 391.257 L 369.324 353.142 A 94 94 0 0 1 210.074 358.569 Z" fill="#2563eb"/>
<path d="M 196.855 162.499 A 170 170 0 0 0 147.070 401.072 L 210.074 358.569 A 94 94 0 0 1 237.602 226.652 Z" fill="#e11d48"/>
<path d="M 288.000 136.000 A 170 170 0 0 0 196.855 162.499 L 237.602 226.652 A 94 94 0 0 1 288.000 212.000 Z" fill="#0f766e"/>
<text class="center" x="288" y="300" text-anchor="middle">259.3M</text>
<text class="center2" x="288" y="324" text-anchor="middle">annual sales units</text>
<rect x="560" y="176" width="18" height="18" rx="4" fill="#d97706"/>
<text class="legend" x="594" y="191">Premium</text>
<text class="legend2" x="594" y="214">86.5M units | 33.4%</text>
<rect x="560" y="246" width="18" height="18" rx="4" fill="#2563eb"/>
<text class="legend" x="594" y="261">Mid-range</text>
<text class="legend2" x="594" y="284">83.5M units | 32.2%</text>
<rect x="560" y="316" width="18" height="18" rx="4" fill="#e11d48"/>
<text class="legend" x="594" y="331">Luxury</text>
<text class="legend2" x="594" y="354">66.0M units | 25.4%</text>
<rect x="560" y="386" width="18" height="18" rx="4" fill="#0f766e"/>
<text class="legend" x="594" y="401">Budget</text>
<text class="legend2" x="594" y="424">23.4M units | 9.0%</text>
</svg>